<?xml version="1.0" encoding="utf-8"?>
<!-- Generator: Adobe Illustrator 16.0.3, SVG Export Plug-In . SVG Version: 6.00 Build 0)  -->
<!DOCTYPE svg PUBLIC "-//W3C//DTD SVG 1.1//EN" "http://www.w3.org/Graphics/SVG/1.1/DTD/svg11.dtd">
<svg version="1.1" id="Capa_1" xmlns="http://www.w3.org/2000/svg" xmlns:xlink="http://www.w3.org/1999/xlink" x="0px" y="0px"
	 width="311.457px" height="68.146px" viewBox="0 0 311.457 68.146" enable-background="new 0 0 311.457 68.146"
	 xml:space="preserve">
<path fill="#9b9b9b" d="M37.304,18.194c-3.373-3.931-7.708-5.887-12.997-5.887c-2.924,0-5.403,0.504-7.431,1.511
	c-2.359,1.203-4.164,2.768-5.398,4.673V6.419c0-1.408-0.566-2.617-1.688-3.621C8.663,1.789,7.311,1.285,5.741,1.285H0V21.81v14.039
	v13.477c0,0,4.292-0.246,8.202,1.69c4.43,2.093,8.932,3.102,13.747,3.102c2.809,0,5.652-0.431,8.517-1.281
	c2.876-0.858,5.145-2.243,6.838-4.156c3.375-3.926,5.068-9.009,5.068-15.245C42.372,27.201,40.679,22.117,37.304,18.194
	 M28.19,42.194c-1.691,2.108-4.113,3.166-7.258,3.166c-3.034,0-5.403-1.058-7.096-3.166c-1.572-1.91-2.358-4.983-2.358-9.208
	c0-3.627,0.847-6.49,2.54-8.602c1.68-2.013,4.092-3.022,7.252-3.022c2.925,0,5.229,1.055,6.92,3.165
	c1.692,2.021,2.535,4.832,2.535,8.459C30.725,37.009,29.882,40.079,28.19,42.194 M76.889,40.98h8.441
	c-1.242,4.228-3.605,7.453-7.089,9.665c-3.488,2.313-7.882,3.473-13.162,3.473c-6.423,0-11.422-1.865-15.03-5.588
	c-3.601-3.621-5.397-8.804-5.397-15.544c0-6.438,1.735-11.47,5.231-15.097c3.601-3.721,8.604-5.582,15.021-5.582
	c6.753,0,11.984,1.81,15.704,5.431c3.6,3.721,5.395,8.904,5.395,15.545v1.057v0.605c0,0.504-0.059,0.857-0.166,1.057H56.633
	c0.113,3.119,0.95,5.437,2.535,6.945c1.46,1.616,3.657,2.297,6.579,2.413c2.876,0.12,5.124-0.876,5.831-1.588
	c0.494-0.494,1.455-1.524,2.192-2.033C74.5,41.239,75.545,40.98,76.889,40.98 M56.633,29.213h17.22
	c-0.23-2.717-1.013-4.729-2.364-6.038c-1.467-1.409-3.552-2.115-6.246-2.115c-2.479,0-4.501,0.706-6.074,2.115
	C57.583,24.583,56.746,26.594,56.633,29.213 M125.73,17.889c-1.691-1.815-3.973-3.193-6.844-4.148
	c-2.871-0.958-5.711-1.434-8.521-1.434c-4.907,0-9.488,1.07-13.747,3.191c-2.937,1.331-8.2,0.95-8.2,0.95v14.125v13.386v24.187
	h5.739c1.583,0,2.924-0.499,4.056-1.501c1.122-1.009,1.686-2.22,1.686-3.623V50.105c1.353,2.118,7.329,4.013,12.833,4.013
	c5.29,0,9.615-1.916,12.999-5.739c3.37-3.923,5.06-9.055,5.06-15.393C130.79,26.847,129.101,21.813,125.73,17.889 M116.61,42.038
	c-1.69,2.118-3.992,3.17-6.922,3.17c-3.149,0-5.572-1.052-7.263-3.17c-1.68-1.908-2.527-4.778-2.527-8.602
	c0-4.123,0.787-7.142,2.358-9.052c1.693-2.118,4.062-3.178,7.097-3.178c3.146,0,5.566,1.06,7.257,3.178
	c1.685,2.112,2.53,5.132,2.53,9.052C119.141,37.06,118.295,39.928,116.61,42.038 M131.801,40.079h8.92
	c3.896,0.517,2.586,3.426,5.326,4.74c2.205,1.053,3.698,1.296,6.519,1.296c2.022,0,3.769-0.351,5.236-1.055
	c1.35-0.704,2.021-1.665,2.021-2.866c0-1.813-2.364-3.173-7.081-4.077c-2.035-0.297-3.56-0.604-4.563-0.906
	c-5.967-1.309-9.959-2.871-11.981-4.681c-2.254-1.811-3.383-4.228-3.383-7.245c0-3.826,1.634-6.988,4.894-9.511
	c3.375-2.31,7.77-3.467,13.168-3.467c5.854,0,10.527,1.157,14.01,3.467c3.266,2.523,5.013,5.79,5.237,9.813h-7.258
	c-2.14,0-3.777-0.85-4.898-2.563l-1.357-1.211c-1.339-0.904-3.196-1.358-5.558-1.358c-2.253,0-3.945,0.305-5.069,0.907
	c-1.015,0.602-1.524,1.511-1.524,2.717c0,1.608,2.991,2.732,8.784,4.077c4.31,0.996,12.466,2.228,15.19,5.127
	c1.897,2.015,3.212,4.23,3.212,7.252c0,4.425-1.804,7.844-5.398,10.261c-3.381,2.213-8.443,3.322-15.194,3.322
	c-6.422,0-11.203-1.16-14.351-3.473c-3.267-2.317-4.899-5.685-4.899-10.11V40.079z M206.834,15.172
	c-3.152-1.91-7.88-2.865-14.177-2.865c-5.626,0-9.956,1.157-13.004,3.467c-2.694,2.013-4.289,4.507-5.301,9.813h8.284
	c3.77,0,2.39-3.17,6.305-4.381c1.248-0.377,2.647-0.6,4.226-0.6c1.46,0,3.061,0.226,4.81,0.682c1.738,0.453,2.616,1.431,2.616,2.945
	c0,2.015-2.479,3.316-7.426,3.923c-1.019,0.097-4.169,0.599-4.729,0.599c-4.282,0.604-7.793,1.818-10.552,3.624
	c-2.758,1.818-4.135,4.832-4.135,9.06c0,4.525,1.519,7.769,4.561,9.734c3.034,1.964,6.579,2.945,10.63,2.945
	c2.034,0,4.361-0.131,7.007-0.379c2.638-0.256,5.149-0.93,7.508-2.036c0.492-0.218,0.963-0.474,1.427-0.751
	c3.736-2.12,6.851-1.649,6.851-1.649V37.362V26.076v-2.453C211.733,20.005,210.104,17.185,206.834,15.172 M198.053,43.549
	c-1.798,1.613-4.273,2.415-7.426,2.415c-1.911,0-3.378-0.402-4.387-1.209c-1.012-0.906-1.516-2.113-1.516-3.621
	c0-1.106,0.392-2.207,1.185-3.314c0.892-0.811,2.359-1.467,4.382-1.971l3.885-0.753c2.81-0.605,5.006-1.255,6.586-1.964v3.774
	C200.762,39.726,199.863,41.941,198.053,43.549"/>
<path fill="#00A0C6" d="M300.832,1.6c-12.005,11.403-26.927,24.779-41.396,33.947c-1.667,1.057-3.405,1.989-5.142,2.914
	c-3.793,2.015-10.415,2.548-14.157-1.657c-2.439-2.74-4.491-5.864-6.525-8.922c-3.625-5.45-9.072,0.33-10.602,4.182
	c-2.407,6.066-2.161,13.431,1.468,18.886c4.028,6.062,8.712,13.368,15.8,15.857c8.685,3.045,16.367-1.421,23.65-6.021
	c15.611-9.849,29.511-22.312,42.932-35.063c4.593-4.364,5.401-12.602,3.927-18.507C309.657,2.719,305.426-2.769,300.832,1.6"/>
<g>
</g>
<g>
</g>
<g>
</g>
<g>
</g>
<g>
</g>
<g>
</g>
<g>
</g>
<g>
</g>
<g>
</g>
<g>
</g>
<g>
</g>
<g>
</g>
<g>
</g>
<g>
</g>
<g>
</g>
</svg>
