<?xml version="1.0" encoding="UTF-8"?>
<svg xmlns="http://www.w3.org/2000/svg" width="180" height="90" viewBox="0 0 180 90" fill="none">
  <path d="M47.6798 32.9765C47.4818 32.6438 47.1238 32.4218 46.7153 32.4218C46.0925 32.4218 45.5876 32.9382 45.5876 33.5755C45.5876 33.911 45.7277 34.2135 45.9517 34.4243L54.4546 44.9679L46.0462 55.3113H45.1293H42.4139L50.3601 45.8537C50.3653 45.8479 50.3698 45.8421 50.3749 45.8363C50.598 45.5882 50.6963 45.2973 50.6912 45.0107C50.6963 44.7243 50.598 44.4335 50.3765 44.1844L50.3749 44.185C50.3698 44.1792 50.3653 44.1735 50.3601 44.1677L40.8713 32.9945C40.869 32.9919 40.8671 32.9893 40.8649 32.9867C40.6685 32.6483 40.3073 32.4218 39.8949 32.4218H33.2304C32.6076 32.4218 32.1027 32.9382 32.1027 33.5755C32.1027 33.7687 32.1284 33.9699 32.2319 34.1113L41.0632 45.0534L33.5363 54.2903C33.4914 54.3363 32.8428 55.2814 31.7025 55.2814H22.7128C21.4903 55.2814 20.4765 54.3057 20.4765 53.0096V36.9976C20.4765 35.8692 21.4903 34.7103 22.7404 34.7103H28.3332C28.9923 34.7103 29.4612 34.2498 29.4612 33.5755C29.4612 32.9009 28.9923 32.3999 28.3332 32.3999L22.6858 32.4227C20.0103 32.4227 18.2131 34.6798 18.2131 36.9741V53.0096C18.2131 55.4797 20.3424 57.5842 22.6858 57.5842H31.6726C32.1261 57.5842 32.5407 57.5163 32.9138 57.4074C32.9672 57.392 33.0199 57.3756 33.0713 57.3585C34.3106 56.9478 35.0584 56.1039 35.203 55.9252L43.6741 45.827C44.0748 45.3619 44.1282 44.6877 43.6808 44.1844L43.6789 44.185C43.6741 44.1792 43.6696 44.1735 43.6644 44.1677L35.6517 34.7103H38.4336H39.3505L47.7241 45.0107L38.9125 55.8831C38.9096 55.8863 38.915 55.8956 38.9276 55.9101C38.8453 56.0704 38.7984 56.2527 38.7984 56.4461C38.7984 57.0831 39.3033 57.5999 39.9261 57.5999H46.5906C47.0033 57.5999 47.3639 57.3727 47.5606 57.0346C47.5628 57.032 47.5647 57.0294 47.567 57.0269L57.0558 45.8537C57.061 45.8479 57.0655 45.8421 57.0706 45.8363C57.5193 45.3337 57.4662 44.6594 57.0655 44.1944L47.6798 32.9765Z" fill="black"></path>
  <path d="M74.0455 42.3H72.4602C72.3665 41.8441 72.2024 41.4435 71.968 41.0983C71.7379 40.7532 71.4567 40.4634 71.1243 40.229C70.7962 39.9904 70.4318 39.8114 70.0312 39.6921C69.6307 39.5728 69.2131 39.5131 68.7784 39.5131C67.9858 39.5131 67.2678 39.7134 66.6243 40.114C65.9851 40.5145 65.4759 41.1047 65.0966 41.8846C64.7216 42.6644 64.5341 43.6211 64.5341 44.7546C64.5341 45.8881 64.7216 46.8448 65.0966 47.6246C65.4759 48.4045 65.9851 48.9947 66.6243 49.3952C67.2678 49.7958 67.9858 49.9961 68.7784 49.9961C69.2131 49.9961 69.6307 49.9364 70.0312 49.8171C70.4318 49.6978 70.7962 49.5209 71.1243 49.2866C71.4567 49.0479 71.7379 48.756 71.968 48.4108C72.2024 48.0614 72.3665 47.6608 72.4602 47.2091H74.0455C73.9261 47.8782 73.7088 48.4769 73.3935 49.0053C73.0781 49.5337 72.6861 49.9833 72.2173 50.354C71.7486 50.7205 71.2223 50.9996 70.6385 51.1914C70.0589 51.3831 69.4389 51.479 68.7784 51.479C67.6619 51.479 66.669 51.2063 65.7997 50.6608C64.9304 50.1154 64.2464 49.3398 63.7479 48.3341C63.2493 47.3285 63 46.1353 63 44.7546C63 43.3739 63.2493 42.1807 63.7479 41.175C64.2464 40.1694 64.9304 39.3938 65.7997 38.8483C66.669 38.3029 67.6619 38.0302 68.7784 38.0302C69.4389 38.0302 70.0589 38.126 70.6385 38.3178C71.2223 38.5096 71.7486 38.7908 72.2173 39.1616C72.6861 39.528 73.0781 39.9755 73.3935 40.5039C73.7088 41.028 73.9261 41.6268 74.0455 42.3Z" fill="black"></path>
  <path d="M77.911 38.2091V51.3H76.4025V38.2091H77.911Z" fill="black"></path>
  <path d="M80.674 51.3V41.4819H82.1825V51.3H80.674ZM81.4411 39.8455C81.147 39.8455 80.8935 39.7454 80.6804 39.5451C80.4716 39.3448 80.3672 39.104 80.3672 38.8228C80.3672 38.5415 80.4716 38.3008 80.6804 38.1005C80.8935 37.9002 81.147 37.8 81.4411 37.8C81.7351 37.8 81.9865 37.9002 82.1953 38.1005C82.4084 38.3008 82.5149 38.5415 82.5149 38.8228C82.5149 39.104 82.4084 39.3448 82.1953 39.5451C81.9865 39.7454 81.7351 39.8455 81.4411 39.8455Z" fill="black"></path>
  <path d="M88.9341 51.5046C88.0137 51.5046 87.2211 51.2873 86.5563 50.8526C85.8915 50.4179 85.3801 49.8192 85.0222 49.0564C84.6642 48.2937 84.4853 47.4222 84.4853 46.4421C84.4853 45.4449 84.6685 44.565 85.035 43.8022C85.4057 43.0351 85.9213 42.4364 86.5819 42.006C87.2466 41.5714 88.0222 41.354 88.9086 41.354C89.5989 41.354 90.2211 41.4819 90.775 41.7375C91.329 41.9932 91.7828 42.3512 92.1365 42.8114C92.4902 43.2716 92.7097 43.8086 92.7949 44.4222H91.2864C91.1713 43.9748 90.9157 43.5785 90.5194 43.2333C90.1273 42.8839 89.5989 42.7091 88.9341 42.7091C88.3461 42.7091 87.8304 42.8625 87.3873 43.1694C86.9483 43.4719 86.6053 43.9002 86.3581 44.4542C86.1152 45.0039 85.9938 45.6495 85.9938 46.391C85.9938 47.1495 86.1131 47.81 86.3517 48.3725C86.5946 48.935 86.9355 49.3718 87.3745 49.6829C87.8176 49.9939 88.3375 50.1495 88.9341 50.1495C89.3262 50.1495 89.682 50.0813 90.0016 49.9449C90.3212 49.8086 90.5918 49.6125 90.8134 49.3569C91.035 49.1012 91.1926 48.7944 91.2864 48.4364H92.7949C92.7097 49.016 92.4988 49.538 92.1621 50.0025C91.8297 50.4627 91.3887 50.8292 90.839 51.1019C90.2935 51.3704 89.6586 51.5046 88.9341 51.5046Z" fill="black"></path>
  <path d="M96.4064 47.7205L96.3809 45.854H96.6877L100.983 41.4819H102.85L98.2729 46.1097H98.1451L96.4064 47.7205ZM95.0002 51.3V38.2091H96.5087V51.3H95.0002ZM101.239 51.3L97.4036 46.4421L98.4774 45.3938L103.156 51.3H101.239Z" fill="black"></path>
  <path d="M114.124 41.4819V42.7603H109.036V41.4819H114.124ZM110.518 39.1296H112.027V48.4875C112.027 48.9137 112.089 49.2333 112.212 49.4464C112.34 49.6552 112.502 49.7958 112.698 49.8682C112.898 49.9364 113.109 49.9705 113.331 49.9705C113.497 49.9705 113.634 49.962 113.74 49.9449C113.847 49.9236 113.932 49.9066 113.996 49.8938L114.303 51.2489C114.2 51.2873 114.058 51.3256 113.874 51.364C113.691 51.4066 113.459 51.4279 113.178 51.4279C112.751 51.4279 112.334 51.3363 111.925 51.153C111.52 50.9698 111.183 50.6907 110.915 50.3157C110.651 49.9407 110.518 49.4677 110.518 48.8966V39.1296Z" fill="black"></path>
  <path d="M120.276 51.5046C119.39 51.5046 118.612 51.2937 117.943 50.8718C117.278 50.4499 116.758 49.8597 116.383 49.1012C116.012 48.3427 115.827 47.4563 115.827 46.4421C115.827 45.4194 116.012 44.5266 116.383 43.7638C116.758 43.001 117.278 42.4087 117.943 41.9868C118.612 41.565 119.39 41.354 120.276 41.354C121.162 41.354 121.938 41.565 122.603 41.9868C123.272 42.4087 123.792 43.001 124.162 43.7638C124.537 44.5266 124.725 45.4194 124.725 46.4421C124.725 47.4563 124.537 48.3427 124.162 49.1012C123.792 49.8597 123.272 50.4499 122.603 50.8718C121.938 51.2937 121.162 51.5046 120.276 51.5046ZM120.276 50.1495C120.949 50.1495 121.503 49.9769 121.938 49.6317C122.373 49.2866 122.694 48.8327 122.903 48.2702C123.112 47.7077 123.216 47.0983 123.216 46.4421C123.216 45.7858 123.112 45.1743 122.903 44.6076C122.694 44.0408 122.373 43.5827 121.938 43.2333C121.503 42.8839 120.949 42.7091 120.276 42.7091C119.603 42.7091 119.049 42.8839 118.614 43.2333C118.179 43.5827 117.858 44.0408 117.649 44.6076C117.44 45.1743 117.336 45.7858 117.336 46.4421C117.336 47.0983 117.44 47.7077 117.649 48.2702C117.858 48.8327 118.179 49.2866 118.614 49.6317C119.049 49.9769 119.603 50.1495 120.276 50.1495Z" fill="black"></path>
  <path d="M132.09 54.9819V41.4819H133.547V43.0415H133.726C133.837 42.8711 133.991 42.6537 134.187 42.3895C134.387 42.1211 134.672 41.8824 135.043 41.6736C135.418 41.4606 135.925 41.354 136.564 41.354C137.391 41.354 138.12 41.5607 138.751 41.9741C139.381 42.3874 139.873 42.9733 140.227 43.7319C140.581 44.4904 140.758 45.3853 140.758 46.4165C140.758 47.4563 140.581 48.3576 140.227 49.1204C139.873 49.8789 139.383 50.467 138.757 50.8846C138.131 51.2979 137.408 51.5046 136.59 51.5046C135.959 51.5046 135.454 51.4002 135.075 51.1914C134.696 50.9783 134.404 50.7375 134.199 50.4691C133.995 50.1964 133.837 49.9705 133.726 49.7915H133.599V54.9819H132.09ZM133.573 46.391C133.573 47.1324 133.682 47.7866 133.899 48.3533C134.116 48.9158 134.434 49.3569 134.851 49.6765C135.269 49.9918 135.78 50.1495 136.385 50.1495C137.016 50.1495 137.542 49.9833 137.964 49.6509C138.39 49.3143 138.71 48.8625 138.923 48.2958C139.14 47.7248 139.249 47.0898 139.249 46.391C139.249 45.7006 139.143 45.0785 138.93 44.5245C138.721 43.9662 138.403 43.5252 137.977 43.2013C137.555 42.8732 137.025 42.7091 136.385 42.7091C135.772 42.7091 135.256 42.8647 134.839 43.1758C134.421 43.4826 134.106 43.913 133.893 44.467C133.68 45.0167 133.573 45.658 133.573 46.391Z" fill="black"></path>
  <path d="M145.948 51.5302C145.326 51.5302 144.761 51.413 144.254 51.1786C143.747 50.94 143.344 50.5969 143.046 50.1495C142.748 49.6978 142.599 49.1523 142.599 48.5131C142.599 47.9506 142.709 47.4946 142.931 47.1452C143.153 46.7915 143.449 46.5145 143.819 46.3143C144.19 46.114 144.599 45.9648 145.047 45.8668C145.498 45.7645 145.952 45.6836 146.408 45.6239C147.005 45.5472 147.488 45.4897 147.859 45.4513C148.234 45.4087 148.507 45.3384 148.677 45.2404C148.852 45.1424 148.939 44.9719 148.939 44.729V44.6779C148.939 44.0472 148.767 43.5572 148.422 43.2077C148.081 42.8583 147.563 42.6836 146.868 42.6836C146.148 42.6836 145.584 42.8412 145.175 43.1566C144.765 43.4719 144.478 43.8086 144.312 44.1665L142.88 43.6552C143.135 43.0586 143.476 42.5941 143.903 42.2617C144.333 41.925 144.802 41.6907 145.309 41.5586C145.82 41.4222 146.323 41.354 146.817 41.354C147.133 41.354 147.495 41.3924 147.904 41.4691C148.317 41.5415 148.716 41.6928 149.099 41.9229C149.487 42.153 149.809 42.5003 150.064 42.9648C150.32 43.4293 150.448 44.0515 150.448 44.8313V51.3H148.939V49.9705H148.863C148.76 50.1836 148.59 50.4116 148.351 50.6545C148.113 50.8973 147.795 51.104 147.399 51.2745C147.003 51.4449 146.519 51.5302 145.948 51.5302ZM146.178 50.175C146.775 50.175 147.278 50.0579 147.687 49.8235C148.1 49.5891 148.411 49.2866 148.62 48.9158C148.833 48.5451 148.939 48.1552 148.939 47.7461V46.3654C148.876 46.4421 148.735 46.5124 148.518 46.5763C148.305 46.636 148.057 46.6893 147.776 46.7361C147.499 46.7787 147.229 46.8171 146.964 46.8512C146.704 46.881 146.493 46.9066 146.331 46.9279C145.939 46.979 145.573 47.0621 145.232 47.1772C144.895 47.288 144.623 47.4563 144.414 47.6821C144.209 47.9037 144.107 48.2063 144.107 48.5898C144.107 49.114 144.301 49.5103 144.689 49.7787C145.081 50.0429 145.577 50.175 146.178 50.175Z" fill="black"></path>
  <path d="M153.821 54.9819C153.566 54.9819 153.338 54.9606 153.137 54.9179C152.937 54.8796 152.799 54.8412 152.722 54.8029L153.105 53.4733C153.472 53.5671 153.796 53.6012 154.077 53.5756C154.358 53.55 154.608 53.4243 154.825 53.1985C155.047 52.9769 155.249 52.6168 155.432 52.1182L155.713 51.3512L152.083 41.4819H153.719L156.429 49.3057H156.532L159.242 41.4819H160.878L156.711 52.7319C156.523 53.239 156.291 53.6587 156.014 53.9911C155.737 54.3277 155.415 54.577 155.049 54.739C154.686 54.9009 154.277 54.9819 153.821 54.9819Z" fill="black"></path>
</svg>
