<svg version="1.1" id="Layer_1" xmlns:x="ns_extend;" xmlns:i="ns_ai;" xmlns:graph="ns_graphs;" xmlns="http://www.w3.org/2000/svg" xmlns:xlink="http://www.w3.org/1999/xlink" x="0px" y="0px" viewBox="0 0 480.2 428.6" style="enable-background:new 0 0 480.2 428.6;" xml:space="preserve">
 <style type="text/css">
  .st0{fill:#202A44;}
	.st1{fill:#FFC300;}
	.st2{fill:#3874FD;}
 </style>
 <metadata>
  <sfw xmlns="ns_sfw;">
   <slices>
   </slices>
   <sliceSourceBounds bottomLeftOrigin="true" height="428.6" width="480.2" x="0" y="0">
   </sliceSourceBounds>
  </sfw>
 </metadata>
 <g id="Layer_2_1_">
  <g id="Layer_1-2">
   <path class="st0" d="M42.3,344.4c0.2,0.4,0.4,0.9,0.4,1.4c-0.1,0.8-0.6,1.6-1.3,1.9l-7.2,5.1c-0.4,0.3-0.9,0.4-1.4,0.4
			c-1.1,0-1.9-1-2.3-1.6c-1.8-2.5-4-4.1-7.2-4.1c-4.7,0.2-8.4,4.1-8.3,8.8c0.2,4.5,3.8,8.1,8.3,8.3c3.3,0,5.5-1.7,7.2-4.1
			c0.4-0.6,1.2-1.6,2.3-1.6c0.5,0,1,0.1,1.4,0.4l7.2,5c0.8,0.4,1.3,1.1,1.3,1.9c0,0.5-0.2,0.9-0.4,1.4c-3.2,6.7-11.6,10.5-20,10.5
			C9,378.2,0,368.3,0,356.2c0-12.5,9.8-22.3,22.8-22.3C30.9,333.9,39.1,337.8,42.3,344.4">
   </path>
   <path class="st0" d="M77,384.6c-1.8,5.9-4.4,8.9-7.6,11c-3.3,2-7,3-10.8,3c-3.4,0-6.8-0.8-9.8-2.5c-1.1-0.6-2.1-1.3-3-2.2
			c-0.5-0.5-0.8-1.1-0.8-1.8c0-0.6,0.3-1.3,0.7-1.8l4.6-6.7c0.4-0.6,1-0.9,1.7-0.9c0.8,0,1.6,0.3,2.2,0.8c1.4,1,3.1,1.7,4.8,1.8
			c2.2,0.1,4.1-1.2,4.8-3.3l1.6-5.1h-7.7c-1.2,0-2.2-0.8-2.5-2l-10.7-36.4c-0.2-0.6-0.3-1.2-0.3-1.8c0-0.8,0.6-1.5,1.8-1.5h12.5
			c1.1,0,1.8,1,2,2l6.9,28.7h1.1l7.2-28.7c0.2-1,0.9-2,2-2h11.7c1.2,0,1.8,0.7,1.8,1.5c0,0.6-0.1,1.2-0.3,1.8L77,384.6z">
   </path>
   <path class="st0" d="M117.1,364.7c4.7,0.1,8.7-3.7,8.8-8.4s-3.7-8.7-8.4-8.8c-4.7-0.1-8.7,3.7-8.8,8.4c0,0.1,0,0.1,0,0.2
			C108.6,360.8,112.3,364.6,117.1,364.7C117,364.7,117.1,364.7,117.1,364.7 M108.6,338c2.2-2.5,6.3-4.1,11.1-4.1
			c10.9,0,20.5,8.3,20.5,22s-9.6,22.3-20.6,22.3c-3.8,0-8.8-1-11-3.9v0.8c0,1-0.8,1.9-1.9,1.9c0,0,0,0-0.1,0H96.1
			c-1,0-1.9-0.8-1.9-1.9c0,0,0-0.1,0-0.1v-55.2c0-1.1,0.8-1.9,1.9-1.9c0,0,0,0,0.1,0h10.5c1.1,0,1.9,0.9,1.9,1.9L108.6,338z">
   </path>
   <path class="st0" d="M157.9,351.1h13.8c-0.6-3.4-3.7-5.2-6.9-5.2S158.5,347.7,157.9,351.1 M172.9,361.6c0.4-0.6,1.2-1.6,2.3-1.6
			c0.5,0,1,0.1,1.4,0.4l7.2,4.5c0.8,0.3,1.3,1,1.4,1.9c0,0.5-0.2,0.9-0.4,1.4c-3,6.4-11.1,10-19.5,10c-13.7,0-22.3-9.7-22.3-21.8
			c0-12.5,9.2-22.4,22.1-22.4c13.3,0,20.9,10.6,20.9,20.8v1.8c0,1.2-0.4,2.4-2.3,2.4h-26c0.2,3.8,3.2,6.8,7.8,6.8
			C168.4,365.7,171.2,364.2,172.9,361.6">
   </path>
   <path class="st0" d="M204.5,375.1c-0.1,1-1,1.8-2,1.8h-10.6c-1,0-1.9-0.8-1.9-1.9c0,0,0,0,0,0v-37.9c0-1,0.8-1.9,1.9-1.9
			c0,0,0.1,0,0.1,0h10c1,0,1.9,0.8,2,1.8v2.4c2.5-3.5,7.1-4.9,10.4-4.9h2.4c0.9,0,2.3,0.3,2.3,2.5v10.4c0.1,1.3-0.9,2.5-2.2,2.6
			c-0.1,0-0.3,0-0.4,0h-4.1c-5.6,0-7.8,1.4-7.8,6.2L204.5,375.1z">
   </path>
   <path class="st0" d="M241.6,333.9c8.6,0,13.8,3,16.1,4.7c1.2,0.9,1.4,1.4,1.4,1.9c-0.1,0.6-0.3,1.2-0.7,1.8l-3.5,5.9
			c-0.3,0.5-0.9,0.9-1.5,0.8c-1-0.1-2-0.4-2.8-1c-3.1-1.6-6.4-2.4-9.9-2.6c-2.5,0-4.9,0.8-4.9,2.7c0,0.8,0.5,1.7,2.1,2.2
			c5.7,1.9,22,0.4,22,13.7c0,7.8-5.7,14.2-19.4,14.2c-8.2,0-14.5-2.3-18.3-5.2c-1.2-0.9-1.5-1.4-1.5-2.5s0.2-1.4,1.1-2.4l3.9-5.2
			c0.3-0.5,0.9-0.7,1.4-0.7c1.3,0,2,1,4,2.1c2.8,1.7,6,2.6,9.3,2.6c2.7,0,5-0.7,5-2.4c0-5.2-23.3,0.2-23.3-15.9
			C222.2,339.5,229.8,333.9,241.6,333.9">
   </path>
   <path class="st0" d="M294.1,356.1c0-4.7-3.9-8.4-8.5-8.3c-4.7,0-8.4,3.9-8.3,8.5c0,4.6,3.8,8.3,8.4,8.3
			C290.3,364.6,294.1,360.7,294.1,356.1 M308.8,356.2c0,12.2-10.3,22-23.1,22s-23.1-9.8-23.1-22s10.3-22.2,23.1-22.2
			S308.8,343.9,308.8,356.2">
   </path>
   <path class="st0" d="M326.9,357.1c0,5.2,2.2,8.6,7.4,8.6c4.5,0,7.9-2.6,7.9-7.8v-21c0.1-1,1-1.8,2-1.8h10.6c1.1,0,1.9,0.8,1.9,1.9
			c0,0,0,0,0,0.1V375c0,1-0.8,1.9-1.9,1.9c0,0-0.1,0-0.1,0h-10.6c-1,0-1.9-0.8-2-1.8v-1.5c-2.6,2.5-5.6,4.5-11.7,4.5
			c-11.6,0-18.2-7.5-18.2-18.8v-22.5c0.1-1,1-1.8,2-1.8h10.5c1,0,1.9,0.8,2,1.8L326.9,357.1z">
   </path>
   <path class="st0" d="M376.8,375.1c-0.1,1-1,1.8-2,1.8h-10.6c-1,0-1.9-0.8-1.9-1.9c0,0,0-0.1,0-0.1v-37.8c0-1,0.8-1.9,1.9-1.9
			c0,0,0.1,0,0.1,0h10c1,0,1.9,0.8,2,1.8v2.4c2.5-3.5,7.1-4.9,10.5-4.9h2.4c0.9,0,2.3,0.3,2.3,2.5v10.4c0.1,1.3-0.9,2.5-2.2,2.6
			c-0.1,0-0.3,0-0.4,0h-4.1c-5.6,0-7.8,1.4-7.8,6.2L376.8,375.1z">
   </path>
   <path class="st0" d="M435.3,344.4c0.2,0.4,0.4,0.9,0.4,1.4c-0.1,0.8-0.6,1.6-1.4,1.9l-7.2,5.1c-0.4,0.3-0.9,0.4-1.4,0.4
			c-1.1,0-1.9-1-2.3-1.6c-1.8-2.5-4-4.1-7.2-4.1c-4.7,0.2-8.4,4.1-8.3,8.8c0.2,4.5,3.8,8.1,8.3,8.3c3.3,0,5.5-1.7,7.2-4.1
			c0.4-0.6,1.2-1.6,2.3-1.6c0.5,0,1,0.1,1.4,0.4l7.2,5c0.8,0.4,1.3,1.1,1.4,1.9c0,0.5-0.2,0.9-0.4,1.4c-3.2,6.7-11.6,10.5-20,10.5
			c-13.3,0-22.3-9.9-22.3-21.9c0-12.5,9.8-22.3,22.8-22.3C423.9,333.9,432.1,337.8,435.3,344.4">
   </path>
   <path class="st0" d="M452.2,351.1H466c-0.6-3.4-3.7-5.2-6.9-5.2S452.8,347.7,452.2,351.1 M467.2,361.6c0.4-0.6,1.2-1.6,2.3-1.6
			c0.5,0,1,0.1,1.4,0.4l7.2,4.5c0.8,0.3,1.3,1,1.4,1.9c0,0.5-0.2,0.9-0.4,1.4c-3,6.4-11,10-19.5,10c-13.7,0-22.3-9.7-22.3-21.8
			c0-12.5,9.2-22.4,22.1-22.4c13.3,0,20.9,10.6,20.9,20.8v1.8c0,1.2-0.4,2.4-2.3,2.4h-26c0.2,3.8,3.2,6.8,7.8,6.8
			C462.7,365.7,465.5,364.2,467.2,361.6">
   </path>
   <path class="st0" d="M246.5,427.7c-0.1,0.3-0.2,0.4-0.5,0.4h-3.9c-0.3,0-0.4-0.1-0.5-0.4L231.4,399c-0.1-0.3,0-0.4,0.3-0.4h3.3
			c0.3,0,0.4,0.1,0.5,0.4l8.6,24.9l8.6-24.9c0.1-0.3,0.2-0.4,0.5-0.4h3.3c0.3,0,0.4,0.1,0.3,0.4L246.5,427.7z">
   </path>
   <path class="st0" d="M261,407.4c0-0.3,0.1-0.4,0.4-0.4h2.5c0.3,0,0.4,0.1,0.4,0.4v20.4c0,0.3-0.1,0.4-0.4,0.4h-2.5
			c-0.3,0-0.4-0.1-0.4-0.4V407.4z M260.4,399c0-0.3,0.1-0.4,0.4-0.4h3.6c0.3,0,0.4,0.1,0.4,0.4v3.6c0,0.3-0.1,0.4-0.4,0.4h-3.6
			c-0.3,0-0.4-0.1-0.4-0.4V399z">
   </path>
   <path class="st0" d="M277.5,428.6c-4.9,0-8.9-2.9-8.9-6.9c0-0.2,0.1-0.4,0.3-0.4c0,0,0.1,0,0.1,0h2.7c0.3,0,0.4,0.1,0.4,0.4
			c0.3,2.5,2.3,3.8,5.5,3.8c2.8,0,4.9-0.9,4.9-3.1s-1.9-3-6.2-3.6c-5.1-0.8-7.2-2.5-7.2-6.2c0-3.9,3.5-6,8-6c4.7,0,7.6,2.4,8.1,6.1
			c0,0.2-0.1,0.4-0.3,0.4c0,0-0.1,0-0.1,0h-2.4c-0.3,0-0.3-0.1-0.4-0.4c-0.6-2.1-2.8-3-5.1-3c-2.7,0-4.6,0.9-4.6,2.8
			c0,2.1,1.7,2.8,6,3.5c4.1,0.7,7.6,1.9,7.6,5.9C286,426.2,282.5,428.6,277.5,428.6">
   </path>
   <path class="st0" d="M298.8,417.9c-3,0-5.3,1.1-5.3,3.7c0,2.5,1.7,3.8,4.5,3.8c3.4,0.2,6.4-2.5,6.6-5.9c0-0.2,0-0.5,0-0.7
			C302.7,418.2,300.8,417.9,298.8,417.9 M291.2,413.2c-0.2,0-0.3-0.1-0.3-0.2c0-0.1,0-0.3,0-0.4c0.9-3.2,3.6-6,8.5-6s8.4,3,8.4,7.4
			v10.2c-0.1,1.3,0.1,2.5,0.7,3.6c0.1,0.1,0.1,0.1,0.1,0.2c0,0.2-0.1,0.2-0.3,0.2H305c-0.3,0-0.4-0.1-0.4-0.4v-2.2
			c-1.7,2-4.3,3.1-6.9,3c-3.7,0-7.6-2.2-7.6-6.7c0-4.7,3.8-7.1,8.6-7.1c2,0,4.1,0.3,6,0.9v-1.2c0-3.2-1.9-4.9-5.1-4.9
			c-2.2-0.1-4.2,1.2-5,3.2c-0.1,0.3-0.3,0.4-0.6,0.4L291.2,413.2z">
   </path>
   <path class="st0" d="M334.2,398.1c6.4,0,10,3.9,10.1,8.2c0,0.3-0.1,0.4-0.4,0.4h-2.7c-0.3,0-0.4-0.1-0.4-0.4
			c-0.2-2.9-3-4.9-6.6-4.9s-6.4,1.6-6.4,4.4c0,3.2,3.4,4.4,7.8,5.5c5.4,1.4,9.7,3.4,9.7,8.1c0,6.1-4.5,9-10.9,9
			c-6.1,0-10.9-3.8-10.9-9.4c0-0.3,0.1-0.4,0.4-0.4h2.7c0.3,0,0.4,0.1,0.4,0.4c0.1,3.4,3,6,7.4,6c4.6,0,7.4-1.7,7.4-5.5
			c0-3-3.6-4.1-7.7-5.1c-5.8-1.5-9.8-3.5-9.8-8.5C324.3,400.8,328.9,398.1,334.2,398.1">
   </path>
   <path class="st0" d="M359.8,425.5c4.4,0,7.3-3.2,7.3-7.9s-3-7.9-7.3-7.9s-7.3,3.2-7.3,7.9S355.5,425.5,359.8,425.5 M359.8,406.5
			c6.1,0,10.8,4.3,10.8,11s-4.7,11-10.8,11s-10.8-4.3-10.8-11S353.7,406.5,359.8,406.5">
   </path>
   <path class="st0" d="M375.8,398.6h2.5c0.2,0,0.4,0.2,0.4,0.4v28.7c0,0.2-0.2,0.4-0.4,0.4h-2.5c-0.2,0-0.4-0.2-0.4-0.4V399
			C375.4,398.8,375.6,398.6,375.8,398.6z">
   </path>
   <path class="st0" d="M402,427.7c0,0.3-0.1,0.4-0.4,0.4h-2.5c-0.3,0-0.4-0.1-0.4-0.4v-2.4c-1.7,2.1-4.3,3.3-7,3.2
			c-4.4,0-7.4-2.7-7.4-7.7v-13.5c0-0.3,0.1-0.4,0.4-0.4h2.5c0.3,0,0.4,0.1,0.4,0.4v13c0,3.4,1.8,5.1,4.8,5.1c3.5,0,6.2-2.6,6.2-7.7
			v-10.4c0-0.3,0.1-0.4,0.4-0.4h2.5c0.3,0,0.4,0.1,0.4,0.4L402,427.7z">
   </path>
   <path class="st0" d="M421.2,406.9c0.3,0,0.4,0.1,0.4,0.4v2.3c0,0.3-0.1,0.4-0.4,0.4h-7v11.8c0,2.4,1.1,3.6,3.3,3.6
			c1.4,0,2.7-0.2,4-0.6c0.1,0,0.2-0.1,0.3-0.1c0.2,0,0.3,0.2,0.3,0.4v2c0,0.4,0,0.6-0.3,0.7c-1.5,0.5-3,0.7-4.5,0.7
			c-4,0-6.4-2.4-6.4-6.4v-12.1h-3.8c-0.3,0-0.4-0.1-0.4-0.4v-2.3c0-0.3,0.1-0.4,0.4-0.4h3.8v-6.1c0-0.3,0.1-0.4,0.4-0.4h2.5
			c0.3,0,0.4,0.1,0.4,0.4v6.1L421.2,406.9z">
   </path>
   <path class="st0" d="M427,407.4c0-0.3,0.1-0.4,0.4-0.4h2.5c0.3,0,0.4,0.1,0.4,0.4v20.4c0,0.3-0.1,0.4-0.4,0.4h-2.5
			c-0.3,0-0.4-0.1-0.4-0.4V407.4z M426.4,399c0-0.3,0.1-0.4,0.4-0.4h3.6c0.3,0,0.4,0.1,0.4,0.4v3.6c0,0.3-0.1,0.4-0.4,0.4h-3.6
			c-0.3,0-0.4-0.1-0.4-0.4V399z">
   </path>
   <path class="st0" d="M445.7,425.5c4.4,0,7.3-3.2,7.3-7.9s-3-7.9-7.3-7.9s-7.3,3.2-7.3,7.9S441.3,425.5,445.7,425.5 M445.7,406.5
			c6.1,0,10.8,4.3,10.8,11s-4.7,11-10.8,11s-10.8-4.3-10.8-11S439.6,406.5,445.7,406.5">
   </path>
   <path class="st0" d="M460.7,407.4c0-0.3,0.1-0.4,0.4-0.4h2.5c0.3,0,0.4,0.1,0.4,0.4v2.4c1.7-2.1,4.3-3.3,7-3.3
			c4.4,0,7.4,2.8,7.4,7.7v13.5c0,0.3-0.1,0.4-0.4,0.4h-2.5c-0.3,0-0.4-0.1-0.4-0.4v-13c0-3.4-1.8-5.1-4.8-5.1
			c-3.5,0-6.3,2.6-6.3,7.7v10.4c0,0.3-0.1,0.4-0.4,0.4h-2.5c-0.3,0-0.4-0.1-0.4-0.4L460.7,407.4z">
   </path>
   <path class="st1" d="M130.5,191c-3.3-8,0.5-17.2,8.5-20.6c8-3.3,17.2,0.5,20.6,8.5c3.3,8-0.5,17.2-8.5,20.6c-1.9,0.8-4,1.2-6,1.2
			C138.6,200.7,132.9,196.9,130.5,191">
   </path>
   <path class="st0" d="M290.2,257.3c-3.3-8,0.5-17.2,8.6-20.5c8-3.3,17.2,0.5,20.5,8.6c3.3,8-0.5,17.2-8.6,20.5
			c-1.9,0.8-3.9,1.2-6,1.2C298.3,267,292.6,263.2,290.2,257.3">
   </path>
   <path class="st0" d="M258,276.2c-36.6,0.1-71.7-14.4-97.5-40.4c-6.1-6.1-6.1-16.1,0-22.2s16.1-6.1,22.2,0
			c19.9,20,47,31.3,75.3,31.2c8.7,0,15.7,7,15.7,15.7S266.7,276.2,258,276.2">
   </path>
   <path class="st0" d="M333.3,235.8c-6.2-6.1-6.2-16.1,0-22.3c6.1-6.2,16.1-6.2,22.3,0s6.2,16.1,0,22.3c-3,3-7,4.6-11.2,4.6
			C340.2,240.4,336.2,238.8,333.3,235.8">
   </path>
   <path class="st1" d="M130.5,85.2c-3.3,8,0.5,17.2,8.5,20.6c8,3.3,17.2-0.5,20.6-8.5c3.3-8-0.5-17.2-8.5-20.6c-1.9-0.8-4-1.2-6-1.2
			C138.6,75.5,132.9,79.4,130.5,85.2">
   </path>
   <path class="st2" d="M290.2,19c-3.3,8,0.5,17.2,8.6,20.5c8,3.3,17.2-0.5,20.5-8.6c3.3-8-0.5-17.2-8.6-20.5c-1.9-0.8-3.9-1.2-6-1.2
			C298.3,9.2,292.6,13.1,290.2,19">
   </path>
   <path class="st2" d="M258,0c-36.6-0.1-71.7,14.4-97.5,40.4c-6.1,6.2-6,16.1,0.2,22.2c6.1,6,16,6,22.1,0c19.9-20,47-31.3,75.3-31.2
			c8.7,0,15.7-7,15.7-15.7C273.7,7,266.7,0,258,0C258,0,258,0,258,0">
   </path>
   <path class="st2" d="M333.3,40.4c-6.2,6.1-6.2,16.1,0,22.3s16.1,6.2,22.3,0c6.2-6.1,6.2-16.1,0-22.3c-3-3-7-4.6-11.2-4.6
			C340.2,35.8,336.2,37.5,333.3,40.4">
   </path>
   <path class="st1" d="M120.1,138.1L120.1,138.1z M135.8,122.4c-8.7,0-15.7,7.1-15.7,15.8c0,8.7,7.1,15.7,15.8,15.7
			c8.7,0,15.7-7.1,15.7-15.8C151.5,129.4,144.5,122.4,135.8,122.4C135.8,122.4,135.8,122.4,135.8,122.4z">
   </path>
   <path class="st0" d="M204.3,416.2h9.6l-4.8-13.4L204.3,416.2z M215.1,419.6H203l-2.9,8.2c-0.1,0.3-0.2,0.4-0.5,0.4h-2.8
			c-0.3,0-0.5-0.1-0.5-0.4c0-0.1,0-0.2,0.1-0.2l10.5-28.5c0.1-0.3,0.1-0.4,0.4-0.4h3.6c0.3,0,0.3,0.1,0.4,0.4l10.5,28.5
			c0,0.1,0.1,0.2,0.1,0.2c0,0.3-0.2,0.4-0.5,0.4h-2.8c-0.3,0-0.4-0.1-0.5-0.4L215.1,419.6z">
   </path>
  </g>
 </g>
</svg>