<?xml version="1.0" encoding="utf-8"?>
<!-- Generator: Adobe Illustrator 16.0.3, SVG Export Plug-In . SVG Version: 6.00 Build 0)  -->
<!DOCTYPE svg PUBLIC "-//W3C//DTD SVG 1.1//EN" "http://www.w3.org/Graphics/SVG/1.1/DTD/svg11.dtd">
<svg version="1.1" id="Capa_1" xmlns="http://www.w3.org/2000/svg" xmlns:xlink="http://www.w3.org/1999/xlink" x="0px" y="0px"
	 width="545.75px" height="497.491px" viewBox="0 0 545.75 497.491" enable-background="new 0 0 545.75 497.491"
	 xml:space="preserve">
<path fill="none" stroke="#8A22DD" stroke-width="106" stroke-miterlimit="10" d="M135.183,53.001
	c50.769,0,90.298,41.106,91.924,91.923"/>
<polyline fill="none" points="280.08,0 135.18,0 135.18,146.619 280.08,146.619 280.08,0 "/>
<g opacity="0.1">
	<g>
		<defs>
			<rect id="SVGID_1_" y="134.73" width="144.92" height="144.924"/>
		</defs>
		<clipPath id="SVGID_2_">
			<use xlink:href="#SVGID_1_"  overflow="visible"/>
		</clipPath>
		<path clip-path="url(#SVGID_2_)" fill="none" stroke="#B458E6" stroke-width="106" stroke-miterlimit="10" d="M144.924,226.654
			c-50.769,0-91.923-41.155-91.923-91.924"/>
	</g>
</g>
<path fill="none" stroke="#CD3A54" stroke-width="3" stroke-miterlimit="10" d="M279.983,143.545
	c2.576,67.279,31.174,130.119,80.607,177.056c49.718,47.206,114.898,73.207,183.529,73.207"/>
<polyline fill="none" points="544.12,143.487 278.479,143.487 278.479,395.308 544.12,395.308 "/>
<path fill="none" stroke="#CD3A54" stroke-width="3" stroke-miterlimit="10" d="M544.269,403.097
	c-71.099,0-138.623-26.936-190.13-75.841c-51.204-48.619-80.851-113.709-83.576-183.417"/>
<polyline fill="none" points="544.271,143.78 269.06,143.78 269.06,404.598 544.271,404.598 "/>
<path fill="none" stroke="#CD3A54" stroke-width="3" stroke-miterlimit="10" d="M544.417,412.387
	c-73.566,0-143.435-27.872-196.73-78.476c-52.975-50.301-83.669-117.641-86.546-189.778"/>
<polyline fill="none" points="544.42,144.072 259.64,144.072 259.64,413.887 544.42,413.887 "/>
<path fill="none" stroke="#CD3A54" stroke-width="3" stroke-miterlimit="10" d="M544.564,421.676
	c-76.034,0-148.245-28.807-203.33-81.108c-54.747-51.983-86.489-121.573-89.515-196.142"/>
<polyline fill="none" points="544.56,144.365 250.22,144.365 250.22,423.176 544.56,423.176 "/>
<path fill="none" stroke="#CD3A54" stroke-width="3" stroke-miterlimit="10" d="M544.713,430.966
	c-78.501,0-153.056-29.743-209.931-83.744c-56.518-53.664-89.308-125.504-92.484-202.501"/>
<polyline fill="none" points="544.71,144.658 240.8,144.658 240.8,432.466 544.71,432.466 "/>
<path fill="none" stroke="#CD3A54" stroke-width="3" stroke-miterlimit="10" d="M544.861,440.255
	c-80.97,0-157.867-30.678-216.53-86.378c-58.289-55.346-92.127-129.437-95.455-208.863"/>
<polyline fill="none" points="544.86,144.951 231.38,144.951 231.38,441.755 544.86,441.755 "/>
<path fill="none" stroke="#CD3A54" stroke-width="3" stroke-miterlimit="10" d="M545.009,449.544
	c-83.437,0-162.678-31.613-223.13-89.012c-60.061-57.028-94.946-133.368-98.424-215.225"/>
<polyline fill="none" points="545.01,145.244 221.96,145.244 221.96,451.044 545.01,451.044 "/>
<path fill="none" stroke="#CD3A54" stroke-width="3" stroke-miterlimit="10" d="M545.157,458.834
	c-85.904,0-167.489-32.551-229.73-91.646c-61.832-58.71-97.766-137.3-101.394-221.586"/>
<polyline fill="none" points="545.16,145.537 212.53,145.537 212.53,460.334 "/>
<line fill="none" x1="212.53" y1="460.334" x2="545.16" y2="460.334"/>
<path fill="none" stroke="#CD3A54" stroke-width="3" stroke-miterlimit="10" d="M545.306,468.123
	c-88.372,0-172.301-33.485-236.33-94.28c-63.604-60.392-100.585-141.231-104.364-227.947"/>
<polyline fill="none" points="545.31,145.83 203.11,145.83 203.11,469.623 "/>
<line fill="none" x1="203.11" y1="469.623" x2="545.31" y2="469.623"/>
<path fill="none" stroke="#CD3A54" stroke-width="3" stroke-miterlimit="10" d="M545.453,477.412
	c-90.84,0-177.11-34.421-242.93-96.914c-65.375-62.074-103.404-145.163-107.333-234.309"/>
<polyline fill="none" points="545.45,146.123 193.69,146.123 193.69,478.912 "/>
<line fill="none" x1="193.69" y1="478.912" x2="545.45" y2="478.912"/>
<path fill="none" stroke="#CD3A54" stroke-width="3" stroke-miterlimit="10" d="M545.602,486.702
	c-93.307,0-181.922-35.356-249.53-99.548c-67.146-63.758-106.224-149.097-110.303-240.671"/>
<polyline fill="none" points="545.601,146.416 184.271,146.416 184.271,488.202 "/>
<path fill="none" stroke="#CD3A54" stroke-width="3" stroke-miterlimit="10" d="M545.75,495.991
	c-95.775,0-186.733-36.292-256.13-102.182c-68.918-65.439-109.043-153.028-113.273-247.033"/>
<polyline fill="none" points="545.75,146.709 174.851,146.709 174.851,497.491 "/>
<polyline fill="none" points="545.75,143.487 174.851,143.487 174.851,497.491 "/>
<polyline fill="none" points="545.75,143.487 174.851,143.487 174.851,497.491 "/>
<g opacity="0.4">
	<g>
		<defs>
			<rect id="SVGID_3_" x="278.83" y="390.935" width="13.29" height="25.921"/>
		</defs>
		<clipPath id="SVGID_4_">
			<use xlink:href="#SVGID_3_"  overflow="visible"/>
		</clipPath>
	</g>
</g>
<g>
</g>
<g>
</g>
<g>
</g>
<g>
</g>
<g>
</g>
<g>
</g>
<g>
</g>
<g>
</g>
<g>
</g>
<g>
</g>
<g>
</g>
<g>
</g>
<g>
</g>
<g>
</g>
<g>
</g>
</svg>
