<svg id="Capa_1" data-name="Capa 1" xmlns="http://www.w3.org/2000/svg" viewBox="0 0 403.22 150.82"><defs><style>.cls-1{fill:#ef3654;}</style></defs><title>pattern3</title><path class="cls-1" d="M390.08-191.45l-0.29.45h0a0.81,0.81,0,0,1,0,.15,0.51,0.51,0,0,1,0,.17,3.31,3.31,0,0,1-.17.37l-0.08.18c0,0.09-.09.19-0.15,0.3-4.28,8.19-39.07,69.93-116.18,70.67-76.54.74-112.71-61-117.58-70l-0.52-1-0.19-.34-83.41.3C101-92.33,189.83-40.86,273.08-40.86s170.59-52.21,201.6-150.82Z" transform="translate(-71.46 191.68)"/></svg>