<svg width="24" height="17" viewBox="0 0 24 17" fill="none" xmlns="http://www.w3.org/2000/svg">
<path d="M6.36366 16.214C4.71519 16.214 3.14965 15.5829 1.95528 14.4368C0.752198 13.2822 0.0590291 11.7311 0.00373544 10.0694C-0.054625 8.32688 0.572504 6.67806 1.76945 5.42709C2.96689 4.1756 4.57491 3.48595 6.29761 3.48595V5.23825C5.04898 5.23825 3.88379 5.73803 3.01604 6.64495C2.1488 7.55137 1.69418 8.74698 1.73617 10.0104C1.7766 11.2096 2.27832 12.3307 3.14914 13.1663C4.01996 14.0018 5.16161 14.4623 6.36366 14.4623C8.84558 14.4623 10.8653 12.4213 10.8653 9.91311V2.39537H9.50293C9.30481 2.39537 9.11845 2.47348 8.97869 2.61524C8.83842 2.75699 8.76162 2.9448 8.76162 3.14501L8.7693 9.8531C8.7693 10.5402 8.48517 11.2034 7.99063 11.6731C7.48892 12.1497 6.83261 12.3887 6.14353 12.3452C4.90409 12.2677 3.91143 11.2644 3.83464 10.0119C3.79163 9.31505 4.02764 8.65231 4.49966 8.14529C4.96451 7.64501 5.62083 7.35839 6.29916 7.35839V9.11069C6.09387 9.11069 5.90393 9.19398 5.76314 9.34504C5.62236 9.49612 5.55222 9.69426 5.56502 9.90328C5.58755 10.2691 5.88857 10.5738 6.25052 10.5965C6.45735 10.6095 6.65343 10.5386 6.80291 10.3963C6.95291 10.254 7.03533 10.0616 7.03533 9.85413L7.02766 3.14708C7.02714 2.47866 7.28414 1.84955 7.75155 1.37669C8.21947 0.903822 8.84098 0.643066 9.50293 0.643066H12.5987V9.91311C12.5987 13.3878 9.8019 16.214 6.36366 16.214Z" fill="#8056B0"/>
<path d="M15.4154 4.71933C15.5725 4.87766 15.7768 4.95681 16.0287 4.95681C16.2806 4.95681 16.4853 4.87766 16.6421 4.71933C16.7987 4.56051 16.8776 4.34684 16.8776 4.07782C16.8776 3.80878 16.7987 3.59512 16.6421 3.43628C16.4853 3.27797 16.2806 3.19882 16.0287 3.19882C15.7768 3.19882 15.5725 3.27797 15.4154 3.43628C15.2588 3.59512 15.1804 3.80878 15.1804 4.07782C15.1804 4.34684 15.2588 4.56051 15.4154 4.71933ZM16.8776 0.663238H17.947V5.87927H16.8776V5.54039C16.6252 5.83373 16.2715 5.98015 15.8147 5.98015C15.3442 5.98015 14.9424 5.79649 14.6096 5.42915C14.2774 5.06132 14.1104 4.61121 14.1104 4.07782C14.1104 3.54441 14.2774 3.09431 14.6096 2.72648C14.9424 2.35914 15.3442 2.17548 15.8147 2.17548C16.2715 2.17548 16.6252 2.3219 16.8776 2.61524V0.663238Z" fill="black"/>
<path d="M18.7098 2.27637H19.7792V5.87926H18.7098V2.27637ZM19.6973 1.76832C19.5714 1.89559 19.4204 1.95923 19.2448 1.95923C19.0686 1.95923 18.9177 1.89559 18.7917 1.76832C18.6658 1.64106 18.6028 1.48843 18.6028 1.31047C18.6028 1.133 18.6658 0.980388 18.7917 0.853109C18.9177 0.725844 19.0686 0.662205 19.2448 0.662205C19.4204 0.662205 19.5714 0.725844 19.6973 0.853109C19.8233 0.980388 19.8863 1.133 19.8863 1.31047C19.8863 1.48843 19.8233 1.64106 19.6973 1.76832Z" fill="black"/>
<path d="M16.1998 7.29889C16.5801 7.29889 16.8975 7.43134 17.1519 7.69519C17.4059 7.95956 17.5333 8.32482 17.5333 8.79095V11.0032H16.4638V8.94926C16.4638 8.73767 16.4055 8.57573 16.2893 8.46295C16.1726 8.35016 16.0241 8.29377 15.8434 8.29377C15.6391 8.29377 15.4774 8.35586 15.3586 8.48106C15.2398 8.60574 15.1804 8.79095 15.1804 9.03567V11.0032H14.1104V7.39977H15.1804V7.73865C15.3944 7.44583 15.7338 7.29889 16.1998 7.29889Z" fill="black"/>
<path d="M19.1803 8.82666H20.7136C20.6091 8.44743 20.3572 8.25756 19.9575 8.25756C19.5442 8.25756 19.2847 8.44743 19.1803 8.82666ZM19.2018 9.63373C19.3256 9.97002 19.6108 10.1382 20.0577 10.1382C20.3475 10.1382 20.5758 10.0471 20.7423 9.86448L21.5977 10.3617C21.246 10.8562 20.7278 11.104 20.0434 11.104C19.4444 11.104 18.9652 10.9235 18.6064 10.5634C18.2476 10.2028 18.0679 9.74911 18.0679 9.20122C18.0679 8.65851 18.2449 8.20583 18.5992 7.84316C18.9534 7.48048 19.4086 7.29889 19.9651 7.29889C20.4832 7.29889 20.9142 7.48048 21.2593 7.84316C21.6038 8.20583 21.7759 8.65851 21.7759 9.20122C21.7759 9.3554 21.7615 9.49922 21.7333 9.63373H19.2018Z" fill="black"/>
<path d="M22.3604 5.74267H23.43V11.0027H22.3604V5.74267Z" fill="black"/>
<path d="M16 16.214C15.4584 16.214 15.0079 16.0319 14.6491 15.6667C14.2901 15.3014 14.1104 14.8498 14.1104 14.3117C14.1104 13.7742 14.2901 13.3225 14.6491 12.9573C15.0079 12.592 15.4584 12.4094 16 12.4094C16.3425 12.4094 16.6574 12.4938 16.9451 12.6618C17.2328 12.83 17.455 13.0535 17.6117 13.3319L16.6779 13.8796C16.5494 13.6107 16.319 13.4762 15.9863 13.4762C15.7532 13.4762 15.5608 13.5542 15.4083 13.7105C15.2561 13.8663 15.1804 14.0669 15.1804 14.3117C15.1804 14.557 15.2561 14.7576 15.4083 14.9139C15.5608 15.0697 15.7532 15.1478 15.9863 15.1478C16.3236 15.1478 16.554 15.0132 16.6779 14.7442L17.6117 15.2849C17.455 15.5683 17.2338 15.794 16.9486 15.9621C16.6636 16.1303 16.3472 16.214 16 16.214Z" fill="black"/>
<path d="M19.0732 14.9242C19.2305 15.083 19.4255 15.1622 19.6584 15.1622C19.8909 15.1622 20.0859 15.083 20.243 14.9242C20.3998 14.766 20.478 14.5616 20.478 14.3117C20.478 14.0623 20.3998 13.8579 20.243 13.6997C20.0859 13.5409 19.8909 13.4617 19.6584 13.4617C19.4255 13.4617 19.2305 13.5409 19.0732 13.6997C18.9166 13.8579 18.8382 14.0623 18.8382 14.3117C18.8382 14.5616 18.9166 14.766 19.0732 14.9242ZM20.9987 15.663C20.6327 16.0304 20.1858 16.2145 19.6584 16.2145C19.1306 16.2145 18.6837 16.0304 18.3177 15.663C17.9516 15.2957 17.7688 14.845 17.7688 14.3117C17.7688 13.7789 17.9516 13.3282 18.3177 12.9609C18.6837 12.5931 19.1306 12.4094 19.6584 12.4094C20.1858 12.4094 20.6327 12.5931 20.9987 12.9609C21.3648 13.3282 21.548 13.7789 21.548 14.3117C21.548 14.845 21.3648 15.2957 20.9987 15.663Z" fill="black"/>
<path d="M22.9313 16.0128C22.7982 16.1468 22.6389 16.214 22.4536 16.214C22.2683 16.214 22.1087 16.1468 21.9755 16.0128C21.8424 15.8782 21.7763 15.7169 21.7763 15.5295C21.7763 15.3422 21.8424 15.1814 21.9755 15.0469C22.1087 14.9123 22.2683 14.845 22.4536 14.845C22.6389 14.845 22.7982 14.9123 22.9313 15.0469C23.0645 15.1814 23.1309 15.3422 23.1309 15.5295C23.1309 15.7169 23.0645 15.8782 22.9313 16.0128Z" fill="#8056B0"/>
</svg>
